<svg xmlns="http://www.w3.org/2000/svg" width="220" height="260" viewBox="0 0 220 260" fill="none">

<defs>
  <linearGradient id="eggFill" x1="0%" y1="0%" x2="100%" y2="100%">
    <stop offset="0%" stop-color="#FFF8E8"/>
    <stop offset="100%" stop-color="#F5E8C8"/>
  </linearGradient>
  <linearGradient id="eggHighlight" x1="0%" y1="0%" x2="100%" y2="100%">
    <stop offset="0%" stop-color="#FFFFFF" stop-opacity="0.75"/>
    <stop offset="100%" stop-color="#FFFFFF" stop-opacity="0"/>
  </linearGradient>
  <linearGradient id="chickFill" x1="0%" y1="0%" x2="100%" y2="100%">
    <stop offset="0%" stop-color="#FFE86B"/>
    <stop offset="100%" stop-color="#FFC92E"/>
  </linearGradient>
  <linearGradient id="wingFill" x1="0%" y1="0%" x2="100%" y2="100%">
    <stop offset="0%" stop-color="#FFE56A"/>
    <stop offset="100%" stop-color="#FFCF3C"/>
  </linearGradient>
  <filter id="shadow" x="-20%" y="-20%" width="140%" height="140%">
    <feDropShadow dx="0" dy="5" stdDeviation="6" flood-color="#B58D55" flood-opacity="0.18"/>
  </filter>
</defs>

<rect x="0" y="0" width="220" height="260" fill="url(#eggFill)"/>
<ellipse cx="110" cy="246" rx="62" ry="10" fill="#C9B187" opacity="0.12"/>
<g filter="url(#shadow)">
  <path d="M43 161 L64 145 L84 162 L106 146 L130 162 L154 146 L177 162 L177 171 C177 216 149 244 110 244 C71 244 43 216 43 171 Z" fill="url(#eggFill)" stroke="#B48239" stroke-width="3" stroke-linejoin="round"/>
  <path d="M58 150 C34 140 30 118 42 101 C52 87 71 86 83 98 C90 106 94 118 92 129 C89 143 74 155 58 150 Z" fill="url(#wingFill)" stroke="#E0A517" stroke-width="3"/>
  <path d="M162 150 C186 140 190 118 178 101 C168 87 149 86 137 98 C130 106 126 118 128 129 C131 143 146 155 162 150 Z" fill="url(#wingFill)" stroke="#E0A517" stroke-width="3"/>
  <circle cx="110" cy="127" r="50" fill="url(#chickFill)" stroke="#E0A517" stroke-width="3"/>
  <path d="M98 73 C101 63 114 58 124 62 C131 65 134 71 132 78" stroke="#E0A517" stroke-width="8" stroke-linecap="round"/>
  <path d="M113 71 C116 60 129 55 138 60 C145 63 148 69 146 76" stroke="#E0A517" stroke-width="8" stroke-linecap="round"/>
  <ellipse cx="91" cy="121" rx="13" ry="16" fill="#2C1A0E"/>
  <ellipse cx="93" cy="116" rx="5" ry="6" fill="#FFFDF4"/>
  <ellipse cx="129" cy="121" rx="13" ry="16" fill="#2C1A0E"/>
  <ellipse cx="131" cy="116" rx="5" ry="6" fill="#FFFDF4"/>
  <ellipse cx="75" cy="145" rx="10" ry="7" fill="#F7B7A6" opacity="0.92"/>
  <ellipse cx="145" cy="145" rx="10" ry="7" fill="#F7B7A6" opacity="0.92"/>
  <path d="M110 128 L96 140 L110 146 L124 140 Z" fill="#F59B23" stroke="#D67318" stroke-width="3" stroke-linejoin="round"/>
  <path d="M110 146 L99 140 H121 L110 156 Z" fill="#FFB24C" stroke="#D67318" stroke-width="3" stroke-linejoin="round"/>
  <path d="M82 99 C87 94 94 92 99 95" stroke="#C98A14" stroke-width="4" stroke-linecap="round"/>
  <path d="M121 95 C126 92 133 94 138 99" stroke="#C98A14" stroke-width="4" stroke-linecap="round"/>
  <path d="M60 132 C68 126 76 128 81 136" stroke="#E0A517" stroke-width="3" stroke-linecap="round"/>
  <path d="M160 132 C152 126 144 128 139 136" stroke="#E0A517" stroke-width="3" stroke-linecap="round"/>
</g>
</svg>